<svg xmlns="http://www.w3.org/2000/svg" viewBox="0 0 900 560" role="img" aria-labelledby="t d"><title id="t">白礁里中秋聯歡會合照</title><desc id="d">仿舊黑白團體合照，共四十七個人物輪廓；前排右三以較深衣著標示。</desc><defs><g id="p"><circle r="13"/><path d="M-21 17q21-14 42 0v40h-42z"/></g><filter id="grain"><feTurbulence baseFrequency=".75" numOctaves="2" seed="7"/><feColorMatrix values="1 0 0 0 0 1 0 0 0 0 1 0 0 0 0 0 0 .08 0"/></filter></defs><rect width="900" height="560" fill="#d8d2c2"/><rect x="35" y="35" width="830" height="490" fill="#bbb4a5" stroke="#5e5a50" stroke-width="4"/><text x="450" y="78" text-anchor="middle" font-family="serif" font-size="25" fill="#3d3a34">白礁里中秋聯歡會　民國八十二年九月十七日</text><g fill="#514e47"><use href="#p" x="100" y="155"/><use href="#p" x="165" y="155"/><use href="#p" x="230" y="155"/><use href="#p" x="295" y="155"/><use href="#p" x="360" y="155"/><use href="#p" x="425" y="155"/><use href="#p" x="490" y="155"/><use href="#p" x="555" y="155"/><use href="#p" x="620" y="155"/><use href="#p" x="685" y="155"/><use href="#p" x="750" y="155"/><use href="#p" x="815" y="155"/><use href="#p" x="78" y="260"/><use href="#p" x="136" y="260"/><use href="#p" x="194" y="260"/><use href="#p" x="252" y="260"/><use href="#p" x="310" y="260"/><use href="#p" x="368" y="260"/><use href="#p" x="426" y="260"/><use href="#p" x="484" y="260"/><use href="#p" x="542" y="260"/><use href="#p" x="600" y="260"/><use href="#p" x="658" y="260"/><use href="#p" x="716" y="260"/><use href="#p" x="774" y="260"/><use href="#p" x="832" y="260"/><use href="#p" x="100" y="370"/><use href="#p" x="165" y="370"/><use href="#p" x="230" y="370"/><use href="#p" x="295" y="370"/><use href="#p" x="360" y="370"/><use href="#p" x="425" y="370"/><use href="#p" x="490" y="370"/><use href="#p" x="555" y="370"/><use href="#p" x="620" y="370"/><use href="#p" x="685" y="370"/><use href="#p" x="750" y="370"/><use href="#p" x="815" y="370"/><use href="#p" x="130" y="475"/><use href="#p" x="210" y="475"/><use href="#p" x="290" y="475"/><use href="#p" x="370" y="475"/><use href="#p" x="450" y="475"/><use href="#p" x="530" y="475"/><use href="#p" x="610" y="475"/><use href="#p" x="690" y="475"/><use href="#p" x="770" y="475" fill="#25231f"/></g><rect width="900" height="560" filter="url(#grain)" opacity=".6"/><text x="790" y="535" font-family="monospace" font-size="15" fill="#4a463f">BJ-1993-0917-G01</text></svg>